# xmcd
#
# Track frame offsets: 
#        150
#        30362
#        54175
#        69402
#        94475
#        116047
#        138470
#        167625
#        205425
#        231115
#
# Disc length: 3353 seconds
#
# Revision: 1
# Processed by: cddbd v1.5.1PL2 Copyright (c) Steve Scherf et al.
# Submitted via: ExactAudioCopy v0.95b3
#
DISCID=870d170a
DTITLE=Modern Jazz Tuba - Live at the Bottom Line
DYEAR=2001
DGENRE=Jazz
TTITLE0=Cherokee
TTITLE1=Valvin' On a Riff
TTITLE2=Skylark
TTITLE3=Rene's Song
TTITLE4=Cookin' at the Continental
TTITLE5=Sandu
TTITLE6=Summer Knows
TTITLE7=Blue Rondo A La Turk
TTITLE8=I-95
TTITLE9=Oleo
EXTD=
EXTT0=
EXTT1=
EXTT2=
EXTT3=
EXTT4=
EXTT5=
EXTT6=
EXTT7=
EXTT8=
EXTT9=
PLAYORDER=
